<svg data-v-fde0c5aa="" xmlns="http://www.w3.org/2000/svg" viewBox="0 0 300 300" class="font"><!----><defs data-v-fde0c5aa=""><!----></defs><rect data-v-fde0c5aa="" fill="transparent" x="0" y="0" width="300px" height="300px" class="logo-background-square"></rect><defs data-v-fde0c5aa=""><linearGradient data-v-fde0c5aa="" gradientTransform="rotate(25)" id="2bde9d6b-8aa0-4b18-909b-839f4d305432" x1="0%" y1="0%" x2="100%" y2="0%"><stop data-v-fde0c5aa="" offset="0%" stop-color="#B4373D" stop-opacity="1"></stop><stop data-v-fde0c5aa="" offset="100%" stop-color="#B23ACB" stop-opacity="1"></stop></linearGradient></defs><g data-v-fde0c5aa="" id="9ef26b5c-4892-480f-b0ce-5171a861b744" fill="url(#2bde9d6b-8aa0-4b18-909b-839f4d305432)" transform="matrix(6.017505244425988,0,0,6.017505244425988,39.93982494329652,78.2111634669712)"><path d="M0.34 19.81L0.34 19.81L0.34 19.81Q0.14 19.75 0.11 19.39L0.11 19.39L0.11 19.39Q0.06 19.21 0.04 18.96L0.04 18.96L0.04 18.96Q0.01 18.70 0.01 18.38L0.01 18.38L0.01 18.38Q0.01 18.09 0.11 17.58L0.11 17.58L0.11 17.58Q0.21 17.07 0.39 16.42L0.39 16.42L0.39 16.42Q0.56 15.78 0.81 15.03L0.81 15.03L0.81 15.03Q1.06 14.28 1.37 13.51L1.37 13.51L1.37 13.51Q1.75 12.54 2.03 11.84L2.03 11.84L2.03 11.84Q2.31 11.13 2.50 10.61L2.50 10.61L2.50 10.61Q2.69 10.09 2.81 9.76L2.81 9.76L2.81 9.76Q2.93 9.42 3.00 9.18L3.00 9.18L3.00 9.18Q3.05 9.02 3.16 8.78L3.16 8.78L3.16 8.78Q3.28 8.54 3.42 8.29L3.42 8.29L3.42 8.29Q3.57 8.05 3.72 7.83L3.72 7.83L3.72 7.83Q3.88 7.62 4.00 7.50L4.00 7.50L4.00 7.50Q4.49 7.57 4.93 7.76L4.93 7.76L4.93 7.76Q5.36 7.94 5.46 8.11L5.46 8.11L5.46 8.11Q5.26 8.29 5.01 8.67L5.01 8.67L5.01 8.67Q4.76 9.06 4.52 9.51L4.52 9.51L4.52 9.51Q4.28 9.97 4.09 10.44L4.09 10.44L4.09 10.44Q3.89 10.92 3.79 11.28L3.79 11.28L3.79 11.28Q3.93 11.05 4.16 10.77L4.16 10.77L4.16 10.77Q4.38 10.49 4.84 10.00L4.84 10.00L4.84 10.00Q5.36 9.46 5.82 9.18L5.82 9.18L5.82 9.18Q6.27 8.89 6.61 8.89L6.61 8.89L6.61 8.89Q7.14 8.89 7.48 9.18L7.48 9.18L7.48 9.18Q7.83 9.48 7.83 9.94L7.83 9.94L7.83 9.94Q7.83 10.95 7.49 11.94L7.49 11.94L7.49 11.94Q7.15 12.92 6.52 13.72L6.52 13.72L6.52 13.72Q6.29 14.03 5.96 14.31L5.96 14.31L5.96 14.31Q5.64 14.59 5.29 14.80L5.29 14.80L5.29 14.80Q4.94 15.02 4.61 15.15L4.61 15.15L4.61 15.15Q4.27 15.27 4.00 15.27L4.00 15.27L4.00 15.27Q3.75 15.27 3.56 15.17L3.56 15.17L3.56 15.17Q3.37 15.06 3.30 14.91L3.30 14.91L3.30 14.91Q3.85 14.59 4.37 14.01L4.37 14.01L4.37 14.01Q4.89 13.44 5.33 12.69L5.33 12.69L5.33 12.69Q5.77 11.94 6.10 11.07L6.10 11.07L6.10 11.07Q6.43 10.21 6.59 9.31L6.59 9.31L6.59 9.31Q6.06 9.59 5.63 9.92L5.63 9.92L5.63 9.92Q5.21 10.25 4.79 10.78L4.79 10.78L4.79 10.78Q4.28 11.40 3.99 11.77L3.99 11.77L3.99 11.77Q3.70 12.15 3.51 12.42L3.51 12.42L3.51 12.42Q3.32 12.68 3.20 12.91L3.20 12.91L3.20 12.91Q3.08 13.15 2.94 13.48L2.94 13.48L2.94 13.48Q2.74 13.93 2.48 14.67L2.48 14.67L2.48 14.67Q2.23 15.40 1.95 16.31L1.95 16.31L1.95 16.31Q1.68 17.22 1.41 18.25L1.41 18.25L1.41 18.25Q1.13 19.28 0.88 20.30L0.88 20.30L0.88 20.30Q0.73 20.27 0.62 20.08L0.62 20.08L0.62 20.08Q0.50 19.95 0.46 19.89L0.46 19.89L0.46 19.89Q0.41 19.84 0.34 19.81ZM7.99 14.90L7.99 14.90L7.99 14.90Q8.06 14.49 8.24 13.82L8.24 13.82L8.24 13.82Q8.41 13.16 8.65 12.41L8.65 12.41L8.65 12.41Q8.89 11.66 9.16 10.91L9.16 10.91L9.16 10.91Q9.42 10.15 9.67 9.55L9.67 9.55L9.67 9.55Q9.86 9.11 10.00 8.87L10.00 8.87L10.00 8.87Q10.14 8.62 10.30 8.46L10.30 8.46L10.30 8.46Q10.50 8.48 10.71 8.55L10.71 8.55L10.71 8.55Q10.92 8.62 11.12 8.72L11.12 8.72L11.12 8.72Q11.31 8.82 11.47 8.93L11.47 8.93L11.47 8.93Q11.62 9.03 11.70 9.13L11.70 9.13L11.70 9.13Q11.33 9.58 11.04 10.15L11.04 10.15L11.04 10.15Q10.75 10.72 10.46 11.62L10.46 11.62L10.46 11.62Q11.21 10.95 11.80 10.33L11.80 10.33L11.80 10.33Q12.38 9.72 12.88 8.96L12.88 8.96L12.88 8.96Q12.96 8.89 13.17 8.89L13.17 8.89L13.17 8.89Q13.37 8.89 13.55 8.95L13.55 8.95L13.55 8.95Q13.73 9.02 13.80 9.13L13.80 9.13L13.80 9.13Q13.55 9.80 13.55 10.46L13.55 10.46L13.55 10.46Q13.55 11.07 13.73 11.38L13.73 11.38L13.73 11.38Q13.72 11.47 13.55 11.70L13.55 11.70L13.55 11.70Q13.37 11.94 13.16 12.15L13.16 12.15L13.16 12.15Q12.78 11.96 12.49 11.61L12.49 11.61L12.49 11.61Q12.19 11.27 12.05 10.86L12.05 10.86L12.05 10.86Q11.40 11.33 10.93 11.77L10.93 11.77L10.93 11.77Q10.47 12.21 10.14 12.75L10.14 12.75L10.14 12.75Q9.81 13.29 9.58 13.99L9.58 13.99L9.58 13.99Q9.35 14.69 9.14 15.65L9.14 15.65L9.14 15.65Q9.02 15.64 8.84 15.56L8.84 15.56L8.84 15.56Q8.67 15.48 8.49 15.37L8.49 15.37L8.49 15.37Q8.32 15.26 8.18 15.13L8.18 15.13L8.18 15.13Q8.04 15.01 7.99 14.90ZM18.80 9.52L18.80 9.52L18.80 9.52Q18.94 9.52 19.13 9.57L19.13 9.57L19.13 9.57Q19.32 9.62 19.47 9.70L19.47 9.70L19.47 9.70Q19.63 9.77 19.73 9.86L19.73 9.86L19.73 9.86Q19.84 9.94 19.84 10.01L19.84 10.01L19.84 10.01Q19.56 10.60 19.32 11.19L19.32 11.19L19.32 11.19Q19.08 11.79 18.91 12.33L18.91 12.33L18.91 12.33Q18.75 12.88 18.66 13.36L18.66 13.36L18.66 13.36Q18.56 13.83 18.56 14.18L18.56 14.18L18.56 14.18Q18.56 14.57 18.65 14.83L18.65 14.83L18.65 14.83Q18.73 15.09 18.93 15.20L18.93 15.20L18.93 15.20Q18.76 15.32 18.49 15.39L18.49 15.39L18.49 15.39Q18.23 15.46 18.02 15.46L18.02 15.46L18.02 15.46Q17.26 15.46 17.26 14.42L17.26 14.42L17.26 14.42Q17.26 13.62 17.79 12.24L17.79 12.24L17.79 12.24Q17.51 12.88 17.15 13.45L17.15 13.45L17.15 13.45Q16.79 14.01 16.41 14.45L16.41 14.45L16.41 14.45Q16.03 14.88 15.65 15.15L15.65 15.15L15.65 15.15Q15.26 15.43 14.94 15.48L14.94 15.48L14.94 15.48Q14.42 15.46 14.10 14.99L14.10 14.99L14.10 14.99Q13.78 14.52 13.78 13.79L13.78 13.79L13.78 13.79Q13.78 13.01 14.11 12.14L14.11 12.14L14.11 12.14Q14.45 11.27 14.97 10.53L14.97 10.53L14.97 10.53Q15.50 9.79 16.11 9.29L16.11 9.29L16.11 9.29Q16.73 8.79 17.30 8.76L17.30 8.76L17.30 8.76Q17.44 8.81 17.62 8.93L17.62 8.93L17.62 8.93Q17.79 9.06 17.96 9.23L17.96 9.23L17.96 9.23Q18.12 9.39 18.23 9.57L18.23 9.57L18.23 9.57Q18.34 9.74 18.35 9.87L18.35 9.87L18.35 9.87Q17.79 9.95 17.20 10.42L17.20 10.42L17.20 10.42Q16.60 10.88 16.12 11.53L16.12 11.53L16.12 11.53Q15.64 12.18 15.33 12.92L15.33 12.92L15.33 12.92Q15.02 13.66 15.02 14.31L15.02 14.31L15.02 14.31Q15.02 14.57 15.22 14.64L15.22 14.64L15.22 14.64Q15.62 14.56 16.16 13.95L16.16 13.95L16.16 13.95Q16.69 13.34 17.44 12.07L17.44 12.07L17.44 12.07Q17.58 11.82 17.76 11.51L17.76 11.51L17.76 11.51Q17.93 11.20 18.12 10.86L18.12 10.86L18.12 10.86Q18.30 10.53 18.47 10.18L18.47 10.18L18.47 10.18Q18.65 9.84 18.80 9.52ZM20.54 14.94L20.54 14.94L20.54 14.94Q20.54 14.45 20.64 13.78L20.64 13.78L20.64 13.78Q20.73 13.12 20.92 12.36L20.92 12.36L20.92 12.36Q21.11 11.61 21.37 10.78L21.37 10.78L21.37 10.78Q21.63 9.95 21.95 9.13L21.95 9.13L21.95 9.13Q22.23 8.39 22.60 7.63L22.60 7.63L22.60 7.63Q22.97 6.87 23.41 6.15L23.41 6.15L23.41 6.15Q23.84 5.42 24.31 4.76L24.31 4.76L24.31 4.76Q24.78 4.10 25.26 3.56L25.26 3.56L25.26 3.56Q25.48 3.56 25.74 3.61L25.74 3.61L25.74 3.61Q26.00 3.67 26.24 3.76L26.24 3.76L26.24 3.76Q26.49 3.85 26.69 3.98L26.69 3.98L26.69 3.98Q26.89 4.10 27.02 4.23L27.02 4.23L27.02 4.23Q25.97 5.31 25.13 6.40L25.13 6.40L25.13 6.40Q24.29 7.50 23.80 8.47L23.80 8.47L23.80 8.47Q23.53 9.00 23.32 9.46L23.32 9.46L23.32 9.46Q23.10 9.93 22.92 10.38L22.92 10.38L22.92 10.38Q22.74 10.84 22.59 11.29L22.59 11.29L22.59 11.29Q22.44 11.75 22.32 12.25L22.32 12.25L22.32 12.25Q25.00 8.82 26.31 8.82L26.31 8.82L26.31 8.82Q26.67 8.82 27.09 9.06L27.09 9.06L27.09 9.06Q27.51 9.30 27.83 9.70L27.83 9.70L27.83 9.70Q27.40 10.18 26.94 10.85L26.94 10.85L26.94 10.85Q26.47 11.52 26.09 12.20L26.09 12.20L26.09 12.20Q25.70 12.88 25.46 13.46L25.46 13.46L25.46 13.46Q25.21 14.04 25.21 14.32L25.21 14.32L25.21 14.32Q25.21 14.46 25.26 14.51L25.26 14.51L25.26 14.51Q25.30 14.56 25.44 14.56L25.44 14.56L25.44 14.56Q25.65 14.56 25.77 14.50L25.77 14.50L25.77 14.50Q25.90 14.45 25.93 14.45L25.93 14.45L25.93 14.45Q26.00 14.56 26.01 14.60L26.01 14.60L26.01 14.60Q26.03 14.64 26.03 14.67L26.03 14.67L26.03 14.67Q26.03 14.73 25.86 14.83L25.86 14.83L25.86 14.83Q25.69 14.94 25.46 15.04L25.46 15.04L25.46 15.04Q25.23 15.15 25.00 15.23L25.00 15.23L25.00 15.23Q24.78 15.32 24.67 15.32L24.67 15.32L24.67 15.32Q24.53 15.32 24.39 15.24L24.39 15.24L24.39 15.24Q24.25 15.16 24.14 15.04L24.14 15.04L24.14 15.04Q24.04 14.91 23.98 14.76L23.98 14.76L23.98 14.76Q23.91 14.60 23.91 14.43L23.91 14.43L23.91 14.43Q23.91 14.22 24.03 13.81L24.03 13.81L24.03 13.81Q24.15 13.40 24.36 12.85L24.36 12.85L24.36 12.85Q24.57 12.29 24.86 11.63L24.86 11.63L24.86 11.63Q25.16 10.98 25.49 10.29L25.49 10.29L25.49 10.29Q25.49 10.23 25.44 10.23L25.44 10.23L25.44 10.23Q25.40 10.23 25.22 10.35L25.22 10.35L25.22 10.35Q25.05 10.46 24.89 10.57L24.89 10.57L24.89 10.57Q24.39 10.95 23.88 11.50L23.88 11.50L23.88 11.50Q23.37 12.05 22.88 12.71L22.88 12.71L22.88 12.71Q22.40 13.37 21.97 14.11L21.97 14.11L21.97 14.11Q21.55 14.84 21.24 15.58L21.24 15.58L21.24 15.58Q21.20 15.68 21.11 15.76L21.11 15.76L21.11 15.76Q21.03 15.85 20.97 15.85L20.97 15.85L20.97 15.85Q20.93 15.85 20.85 15.75L20.85 15.75L20.85 15.75Q20.78 15.65 20.71 15.51L20.71 15.51L20.71 15.51Q20.65 15.36 20.59 15.20L20.59 15.20L20.59 15.20Q20.54 15.05 20.54 14.94ZM27.80 14.24L27.80 14.24L27.80 14.24Q27.80 14.11 27.83 13.92L27.83 13.92L27.83 13.92Q27.85 13.73 27.90 13.42L27.90 13.42L27.90 13.42Q27.96 13.10 28.05 12.66L28.05 12.66L28.05 12.66Q28.14 12.21 28.28 11.58L28.28 11.58L28.28 11.58Q28.31 11.44 28.41 11.13L28.41 11.13L28.41 11.13Q28.50 10.82 28.67 10.48L28.67 10.48L28.67 10.48Q28.83 10.14 29.06 9.81L29.06 9.81L29.06 9.81Q29.29 9.49 29.61 9.34L29.61 9.34L29.61 9.34Q29.85 9.39 30.24 9.63L30.24 9.63L30.24 9.63Q30.63 9.86 30.91 10.26L30.91 10.26L30.91 10.26Q30.59 10.63 30.37 10.99L30.37 10.99L30.37 10.99Q30.16 11.35 29.98 11.75L29.98 11.75L29.98 11.75Q29.81 12.14 29.66 12.56L29.66 12.56L29.66 12.56Q29.51 12.98 29.33 13.44L29.33 13.44L29.33 13.44Q29.18 13.83 29.05 14.25L29.05 14.25L29.05 14.25Q28.92 14.66 28.91 14.97L28.91 14.97L28.91 14.97Q28.91 15.22 28.90 15.32L28.90 15.32L28.90 15.32Q28.90 15.43 28.83 15.43L28.83 15.43L28.83 15.43Q28.77 15.43 28.60 15.36L28.60 15.36L28.60 15.36Q28.43 15.29 28.26 15.14L28.26 15.14L28.26 15.14Q28.08 14.99 27.94 14.77L27.94 14.77L27.94 14.77Q27.80 14.55 27.80 14.24ZM30.48 8.16L30.48 8.16L30.48 8.16Q30.48 8.08 30.52 7.91L30.52 7.91L30.52 7.91Q30.45 7.84 30.40 7.70L30.40 7.70L30.40 7.70Q30.35 7.56 30.35 7.45L30.35 7.45L30.35 7.45Q30.35 7.32 30.39 7.11L30.39 7.11L30.39 7.11Q30.42 6.89 30.48 6.64L30.48 6.64L30.48 6.64Q30.53 6.38 30.62 6.11L30.62 6.11L30.62 6.11Q30.70 5.84 30.79 5.61L30.79 5.61L30.79 5.61Q30.95 5.61 31.20 5.71L31.20 5.71L31.20 5.71Q31.44 5.80 31.70 5.94L31.70 5.94L31.70 5.94Q31.95 6.09 32.16 6.27L32.16 6.27L32.16 6.27Q32.37 6.44 32.48 6.59L32.48 6.59L32.48 6.59Q32.33 6.75 32.07 7.02L32.07 7.02L32.07 7.02Q31.82 7.29 31.58 7.59L31.58 7.59L31.58 7.59Q31.35 7.90 31.15 8.16L31.15 8.16L31.15 8.16Q30.95 8.43 30.90 8.54L30.90 8.54L30.90 8.54Q30.73 8.51 30.60 8.39L30.60 8.39L30.60 8.39Q30.48 8.27 30.48 8.16ZM30.76 14.90L30.76 14.90L30.76 14.90Q30.83 14.49 31.00 13.82L31.00 13.82L31.00 13.82Q31.18 13.16 31.42 12.41L31.42 12.41L31.42 12.41Q31.65 11.66 31.92 10.91L31.92 10.91L31.92 10.91Q32.19 10.15 32.44 9.55L32.44 9.55L32.44 9.55Q32.62 9.11 32.76 8.87L32.76 8.87L32.76 8.87Q32.90 8.62 33.07 8.46L33.07 8.46L33.07 8.46Q33.26 8.48 33.47 8.55L33.47 8.55L33.47 8.55Q33.68 8.62 33.88 8.72L33.88 8.72L33.88 8.72Q34.08 8.82 34.23 8.93L34.23 8.93L34.23 8.93Q34.38 9.03 34.47 9.13L34.47 9.13L34.47 9.13Q34.09 9.58 33.80 10.15L33.80 10.15L33.80 10.15Q33.52 10.72 33.22 11.62L33.22 11.62L33.22 11.62Q33.98 10.95 34.56 10.33L34.56 10.33L34.56 10.33Q35.14 9.72 35.64 8.96L35.64 8.96L35.64 8.96Q35.73 8.89 35.94 8.89L35.94 8.89L35.94 8.89Q36.13 8.89 36.32 8.95L36.32 8.95L36.32 8.95Q36.50 9.02 36.57 9.13L36.57 9.13L36.57 9.13Q36.32 9.80 36.32 10.46L36.32 10.46L36.32 10.46Q36.32 11.07 36.50 11.38L36.50 11.38L36.50 11.38Q36.48 11.47 36.31 11.70L36.31 11.70L36.31 11.70Q36.13 11.94 35.92 12.15L35.92 12.15L35.92 12.15Q35.55 11.96 35.25 11.61L35.25 11.61L35.25 11.61Q34.96 11.27 34.82 10.86L34.82 10.86L34.82 10.86Q34.16 11.33 33.70 11.77L33.70 11.77L33.70 11.77Q33.24 12.21 32.91 12.75L32.91 12.75L32.91 12.75Q32.58 13.29 32.35 13.99L32.35 13.99L32.35 13.99Q32.12 14.69 31.91 15.65L31.91 15.65L31.91 15.65Q31.78 15.64 31.61 15.56L31.61 15.56L31.61 15.56Q31.43 15.48 31.26 15.37L31.26 15.37L31.26 15.37Q31.08 15.26 30.94 15.13L30.94 15.13L30.94 15.13Q30.80 15.01 30.76 14.90Z"></path></g><!----><!----></svg>