<svg data-v-423bf9ae="" xmlns="http://www.w3.org/2000/svg" viewBox="0 0 204 90" class="iconLeftSlogan"><!----><!----><!----><g data-v-423bf9ae="" id="04ce457b-45bb-4c7a-89f1-1902e835963e" fill="black" transform="matrix(2.1978021056708825,0,0,2.1978021056708825,113.07692021297787,1.5164831018349965)"><path d="M3.72 7.01L3.72 7.01L3.72 7.01Q4.17 6.99 4.69 7.17L4.69 7.17L4.69 7.17Q5.21 7.36 5.65 7.73L5.65 7.73L5.65 7.73Q6.09 8.11 6.38 8.64L6.38 8.64L6.38 8.64Q6.66 9.17 6.66 9.83L6.66 9.83L6.66 9.83Q6.66 10.58 6.25 11.27L6.25 11.27L6.25 11.27Q5.84 11.96 5.15 12.52L5.15 12.52L5.15 12.52Q4.45 13.08 3.56 13.47L3.56 13.47L3.56 13.47Q2.67 13.87 1.71 14.06L1.71 14.06L1.71 14.06Q1.71 14.07 1.68 14.62L1.68 14.62L1.68 14.62Q1.65 15.18 1.60 16.06L1.60 16.06L1.60 16.06Q1.54 16.94 1.48 18.07L1.48 18.07L1.48 18.07Q1.41 19.19 1.34 20.37L1.34 20.37L1.34 20.37Q1.19 23.13 0.99 26.61L0.99 26.61L0.99 26.61Q0.81 23.94 0.67 21.53L0.67 21.53L0.67 21.53Q0.62 20.51 0.56 19.43L0.56 19.43L0.56 19.43Q0.50 18.35 0.46 17.35L0.46 17.35L0.46 17.35Q0.42 16.34 0.39 15.47L0.39 15.47L0.39 15.47Q0.36 14.60 0.36 13.99L0.36 13.99L0.36 11.19L0.36 11.19Q0.36 10.35 0.29 9.82L0.29 9.82L0.29 9.82Q0.21 9.30 0.10 8.99L0.10 8.99L0.10 8.99Q-0.01 8.68-0.14 8.53L-0.14 8.53L-0.14 8.53Q-0.27 8.39-0.36 8.30L-0.36 8.30L-0.36 8.30Q-0.49 8.19-0.67 8.15L-0.67 8.15L-0.67 8.15Q-0.84 8.11-1.01 8.11L-1.01 8.11L-1.01 8.11Q-1.20 8.11-1.40 8.16L-1.40 8.16L-1.40 8.16Q-1.01 8.02-0.63 7.84L-0.63 7.84L-0.63 7.84Q-0.31 7.69 0.04 7.48L0.04 7.48L0.04 7.48Q0.39 7.27 0.67 7.01L0.67 7.01L0.67 7.01Q1.25 7.01 1.48 7.67L1.48 7.67L1.48 7.67Q1.62 7.91 1.62 8.69L1.62 8.69L1.62 8.69Q1.83 8.51 2.10 8.29L2.10 8.29L2.10 8.29Q2.37 8.06 2.65 7.83L2.65 7.83L2.65 7.83Q2.93 7.60 3.20 7.38L3.20 7.38L3.20 7.38Q3.47 7.17 3.72 7.01ZM1.71 13.83L1.71 13.83L1.71 13.83Q2.31 13.71 2.91 13.43L2.91 13.43L2.91 13.43Q3.51 13.16 4.00 12.74L4.00 12.74L4.00 12.74Q4.48 12.32 4.78 11.75L4.78 11.75L4.78 11.75Q5.08 11.19 5.08 10.46L5.08 10.46L5.08 10.46Q5.08 9.91 4.79 9.52L4.79 9.52L4.79 9.52Q4.51 9.13 4.11 8.88L4.11 8.88L4.11 8.88Q3.71 8.62 3.29 8.50L3.29 8.50L3.29 8.50Q2.87 8.39 2.60 8.39L2.60 8.39L2.60 8.39Q2.30 8.39 2.06 8.58L2.06 8.58L2.06 8.58Q1.83 8.78 1.71 9.02L1.71 9.02L1.71 9.02Q1.74 9.44 1.74 9.97L1.74 9.97L1.74 9.97Q1.75 10.50 1.74 11.12L1.74 11.12L1.74 11.12Q1.74 11.73 1.72 12.42L1.72 12.42L1.72 12.42Q1.71 13.10 1.71 13.83ZM12.31 7.06L12.31 7.06L12.31 7.06Q12.52 7.06 12.75 7.07L12.75 7.07L12.75 7.07Q12.99 7.08 13.15 7.15L13.15 7.15L13.15 7.15Q12.99 7.36 12.85 7.69L12.85 7.69L12.85 7.69Q12.71 8.01 12.60 8.30L12.60 8.30L12.60 8.30Q12.46 8.67 12.35 9.03L12.35 9.03L12.35 9.03Q12.25 8.97 12.10 8.92L12.10 8.92L12.10 8.92Q11.97 8.88 11.78 8.83L11.78 8.83L11.78 8.83Q11.59 8.79 11.33 8.79L11.33 8.79L11.33 8.79Q10.91 8.79 10.63 9.02L10.63 9.02L10.63 9.02Q10.36 9.25 10.19 9.63L10.19 9.63L10.19 9.63Q10.02 10.00 9.93 10.44L9.93 10.44L9.93 10.44Q9.84 10.89 9.80 11.31L9.80 11.31L9.80 11.31Q9.80 12.12 9.82 12.57L9.82 12.57L9.82 12.57Q9.84 13.02 9.84 13.30L9.84 13.30L9.84 13.30Q9.66 13.34 9.44 13.42L9.44 13.42L9.44 13.42Q9.23 13.50 9.00 13.60L9.00 13.60L9.00 13.60Q8.78 13.71 8.56 13.81L8.56 13.81L8.56 13.81Q8.34 13.92 8.18 14.01L8.18 14.01L8.18 14.01Q8.25 13.38 8.29 12.71L8.29 12.71L8.29 12.71Q8.34 12.04 8.37 11.40L8.37 11.40L8.37 11.40Q8.39 10.75 8.37 10.17L8.37 10.17L8.37 10.17Q8.34 9.59 8.28 9.15L8.28 9.15L8.28 9.15Q8.22 8.71 8.12 8.43L8.12 8.43L8.12 8.43Q8.02 8.16 7.88 8.13L7.88 8.13L7.88 8.13Q7.81 8.12 7.73 8.12L7.73 8.12L7.73 8.12Q7.64 8.12 7.56 8.12L7.56 8.12L7.56 8.12Q7.46 8.12 7.36 8.13L7.36 8.13L7.36 8.13Q7.74 8.01 8.12 7.84L8.12 7.84L8.12 7.84Q8.44 7.69 8.83 7.48L8.83 7.48L8.83 7.48Q9.23 7.28 9.59 7.01L9.59 7.01L9.59 7.01Q9.63 7.20 9.66 7.51L9.66 7.51L9.66 7.51Q9.69 7.83 9.72 8.22L9.72 8.22L9.72 8.22Q9.74 8.62 9.76 9.07L9.76 9.07L9.76 9.07Q9.77 9.52 9.80 9.95L9.80 9.95L9.80 9.95Q10.01 9.48 10.29 8.97L10.29 8.97L10.29 8.97Q10.57 8.46 10.89 8.03L10.89 8.03L10.89 8.03Q11.21 7.60 11.58 7.33L11.58 7.33L11.58 7.33Q11.94 7.06 12.31 7.06ZM20.02 9.52L20.02 9.52L20.02 9.52Q20.13 9.79 20.34 10.30L20.34 10.30L20.34 10.30Q20.55 10.82 20.78 11.35L20.78 11.35L20.78 11.35Q21.01 11.89 21.24 12.29L21.24 12.29L21.24 12.29Q21.46 12.70 21.62 12.73L21.62 12.73L21.62 12.73Q21.20 12.96 20.74 13.30L20.74 13.30L20.74 13.30Q20.29 13.64 19.95 14L19.95 14L19.95 14Q19.88 13.69 19.70 13.14L19.70 13.14L19.70 13.14Q19.52 12.59 19.21 11.93L19.21 11.93L19.21 11.93Q18.94 12.19 18.54 12.55L18.54 12.55L18.54 12.55Q18.13 12.91 17.67 13.23L17.67 13.23L17.67 13.23Q17.21 13.55 16.71 13.78L16.71 13.78L16.71 13.78Q16.21 14 15.76 14L15.76 14L15.76 14Q15.44 14 15.10 13.91L15.10 13.91L15.10 13.91Q14.76 13.82 14.48 13.64L14.48 13.64L14.48 13.64Q14.20 13.47 14.02 13.22L14.02 13.22L14.02 13.22Q13.85 12.96 13.85 12.64L13.85 12.64L13.85 12.64Q13.85 12.25 14.25 11.80L14.25 11.80L14.25 11.80Q14.66 11.35 15.26 10.91L15.26 10.91L15.26 10.91Q15.86 10.47 16.56 10.05L16.56 10.05L16.56 10.05Q17.26 9.63 17.85 9.27L17.85 9.27L17.85 9.27Q17.42 8.72 17.03 8.48L17.03 8.48L17.03 8.48Q16.65 8.23 16.18 8.23L16.18 8.23L16.18 8.23Q15.99 8.23 15.67 8.34L15.67 8.34L15.67 8.34Q15.36 8.46 15.06 8.60L15.06 8.60L15.06 8.60Q14.70 8.75 14.34 8.95L14.34 8.95L14.34 8.95Q15.12 8.41 15.85 7.98L15.85 7.98L15.85 7.98Q16.16 7.80 16.48 7.63L16.48 7.63L16.48 7.63Q16.80 7.46 17.10 7.32L17.10 7.32L17.10 7.32Q17.40 7.18 17.66 7.10L17.66 7.10L17.66 7.10Q17.92 7.01 18.10 7.01L18.10 7.01L18.10 7.01Q18.45 7.01 18.75 7.31L18.75 7.31L18.75 7.31Q19.05 7.62 19.30 8.03L19.30 8.03L19.30 8.03Q19.54 8.44 19.72 8.86L19.72 8.86L19.72 8.86Q19.89 9.28 20.02 9.52ZM17.28 12.64L17.28 12.64L17.28 12.64Q17.61 12.64 17.92 12.54L17.92 12.54L17.92 12.54Q18.23 12.45 18.46 12.26L18.46 12.26L18.46 12.26Q18.69 12.08 18.83 11.83L18.83 11.83L18.83 11.83Q18.97 11.58 18.97 11.28L18.97 11.28L18.97 11.28Q18.86 11.10 18.73 10.88L18.73 10.88L18.73 10.88Q18.61 10.67 18.49 10.47L18.49 10.47L18.49 10.47Q18.38 10.22 18.26 9.99L18.26 9.99L18.26 9.99Q18.14 9.76 18.02 9.60L18.02 9.60L18.02 9.60Q17.71 9.72 17.27 9.92L17.27 9.92L17.27 9.92Q16.83 10.12 16.42 10.39L16.42 10.39L16.42 10.39Q16.02 10.67 15.73 10.99L15.73 10.99L15.73 10.99Q15.44 11.31 15.44 11.66L15.44 11.66L15.44 11.66Q15.44 11.86 15.59 12.03L15.59 12.03L15.59 12.03Q15.74 12.21 15.98 12.34L15.98 12.34L15.98 12.34Q16.23 12.47 16.56 12.56L16.56 12.56L16.56 12.56Q16.90 12.64 17.28 12.64ZM26.91 7.53L26.91 7.53L26.91 7.53Q27.36 7.53 27.80 7.69L27.80 7.69L27.80 7.69Q28.25 7.84 28.61 8.16L28.61 8.16L28.61 8.16Q28.97 8.48 29.19 8.99L29.19 8.99L29.19 8.99Q29.41 9.49 29.41 10.18L29.41 10.18L29.41 10.18Q29.41 11.12 29.13 11.82L29.13 11.82L29.13 11.82Q28.85 12.52 28.53 12.99L28.53 12.99L28.53 12.99Q28.14 13.55 27.65 13.93L27.65 13.93L27.65 13.93Q27.80 13.71 27.94 13.36L27.94 13.36L27.94 13.36Q28.06 13.06 28.15 12.63L28.15 12.63L28.15 12.63Q28.24 12.19 28.24 11.58L28.24 11.58L28.24 11.58Q28.24 10.78 27.96 10.21L27.96 10.21L27.96 10.21Q27.69 9.63 27.27 9.26L27.27 9.26L27.27 9.26Q26.85 8.89 26.35 8.72L26.35 8.72L26.35 8.72Q25.84 8.55 25.38 8.55L25.38 8.55L25.38 8.55Q24.93 8.55 24.73 8.94L24.73 8.94L24.73 8.94Q24.53 9.32 24.46 9.97L24.46 9.97L24.46 9.97Q24.39 10.63 24.40 11.48L24.40 11.48L24.40 11.48Q24.42 12.33 24.42 13.27L24.42 13.27L24.42 13.27Q24.14 13.38 23.83 13.62L23.83 13.62L23.83 13.62Q23.52 13.85 23.24 14L23.24 14L23.24 14Q23.28 13.45 23.28 12.66L23.28 12.66L23.28 12.66Q23.28 11.86 23.27 10.93L23.27 10.93L23.27 10.93Q23.27 10.00 23.25 8.99L23.25 8.99L23.25 8.99Q23.24 7.98 23.24 7.01L23.24 7.01L23.24 7.01Q23.24 5.07 23.21 3.30L23.21 3.30L23.21 3.30Q23.18 1.54 23.02 0.06L23.02 0.06L23.02 0.06Q23.84 0.06 24.42-0.18L24.42-0.18L24.42-0.18Q25.00-0.41 25.45-0.69L25.45-0.69L25.45-0.69Q25.21-0.46 25.10-0.25L25.10-0.25L25.10-0.25Q24.99-0.04 24.93 0.13L24.93 0.13L24.93 0.13Q24.79 0.57 24.72 1.34L24.72 1.34L24.72 1.34Q24.65 2.10 24.62 3.04L24.62 3.04L24.62 3.04Q24.58 3.99 24.58 5.02L24.58 5.02L24.58 5.02Q24.57 6.05 24.57 7.01L24.57 7.01L24.57 8.55L24.57 8.55Q24.88 8.27 25.24 8.05L25.24 8.05L25.24 8.05Q25.56 7.85 25.99 7.69L25.99 7.69L25.99 7.69Q26.42 7.53 26.91 7.53ZM33.07 5.24L33.07 5.24L33.07 5.24Q32.89 5.38 32.70 5.53L32.70 5.53L32.70 5.53Q32.55 5.67 32.36 5.85L32.36 5.85L32.36 5.85Q32.17 6.03 32.02 6.23L32.02 6.23L32.02 6.23Q31.86 5.98 31.70 5.80L31.70 5.80L31.70 5.80Q31.53 5.61 31.37 5.49L31.37 5.49L31.37 5.49Q31.21 5.33 31.04 5.24L31.04 5.24L31.04 5.24Q31.22 5.10 31.39 4.94L31.39 4.94L31.39 4.94Q31.54 4.80 31.71 4.62L31.71 4.62L31.71 4.62Q31.88 4.44 32.02 4.23L32.02 4.23L32.02 4.23Q32.17 4.47 32.35 4.65L32.35 4.65L32.35 4.65Q32.54 4.84 32.69 4.97L32.69 4.97L32.69 4.97Q32.87 5.12 33.07 5.24ZM30.81 8.12L30.81 8.12L30.81 8.12Q31.15 7.98 31.45 7.88L31.45 7.88L31.45 7.88Q31.75 7.77 32.02 7.65L32.02 7.65L32.02 7.65Q32.30 7.53 32.56 7.38L32.56 7.38L32.56 7.38Q32.82 7.24 33.07 7.01L33.07 7.01L33.07 7.01Q33.18 7.39 33.17 7.93L33.17 7.93L33.17 7.93Q33.15 8.47 33.10 9.06L33.10 9.06L33.10 9.06Q33.05 9.66 33.04 10.26L33.04 10.26L33.04 10.26Q33.03 10.86 33.15 11.35L33.15 11.35L33.15 11.35Q33.26 11.84 33.56 12.17L33.56 12.17L33.56 12.17Q33.87 12.50 34.47 12.56L34.47 12.56L34.47 12.56Q33.87 12.95 33.44 13.30L33.44 13.30L33.44 13.30Q33.01 13.65 32.59 14.01L32.59 14.01L32.59 14.01Q32.47 13.96 32.31 13.89L32.31 13.89L32.31 13.89Q32.16 13.82 32.02 13.69L32.02 13.69L32.02 13.69Q31.88 13.55 31.77 13.35L31.77 13.35L31.77 13.35Q31.67 13.15 31.65 12.82L31.65 12.82L31.65 12.82Q31.67 11.87 31.70 11.01L31.70 11.01L31.70 11.01Q31.72 10.15 31.67 9.50L31.67 9.50L31.67 9.50Q31.61 8.85 31.42 8.48L31.42 8.48L31.42 8.48Q31.23 8.11 30.81 8.12ZM40.11 7.06L40.11 7.06L40.11 7.06Q40.32 7.06 40.56 7.07L40.56 7.07L40.56 7.07Q40.80 7.08 40.95 7.15L40.95 7.15L40.95 7.15Q40.80 7.36 40.66 7.69L40.66 7.69L40.66 7.69Q40.52 8.01 40.40 8.30L40.40 8.30L40.40 8.30Q40.26 8.67 40.15 9.03L40.15 9.03L40.15 9.03Q40.05 8.97 39.90 8.92L39.90 8.92L39.90 8.92Q39.77 8.88 39.59 8.83L39.59 8.83L39.59 8.83Q39.40 8.79 39.13 8.79L39.13 8.79L39.13 8.79Q38.71 8.79 38.44 9.02L38.44 9.02L38.44 9.02Q38.16 9.25 38.00 9.63L38.00 9.63L38.00 9.63Q37.83 10.00 37.74 10.44L37.74 10.44L37.74 10.44Q37.65 10.89 37.60 11.31L37.60 11.31L37.60 11.31Q37.60 12.12 37.63 12.57L37.63 12.57L37.63 12.57Q37.65 13.02 37.65 13.30L37.65 13.30L37.65 13.30Q37.46 13.34 37.25 13.42L37.25 13.42L37.25 13.42Q37.03 13.50 36.81 13.60L36.81 13.60L36.81 13.60Q36.58 13.71 36.37 13.81L36.37 13.81L36.37 13.81Q36.15 13.92 35.98 14.01L35.98 14.01L35.98 14.01Q36.05 13.38 36.10 12.71L36.10 12.71L36.10 12.71Q36.15 12.04 36.17 11.40L36.17 11.40L36.17 11.40Q36.19 10.75 36.17 10.17L36.17 10.17L36.17 10.17Q36.15 9.59 36.09 9.15L36.09 9.15L36.09 9.15Q36.02 8.71 35.92 8.43L35.92 8.43L35.92 8.43Q35.83 8.16 35.69 8.13L35.69 8.13L35.69 8.13Q35.62 8.12 35.53 8.12L35.53 8.12L35.53 8.12Q35.45 8.12 35.36 8.12L35.36 8.12L35.36 8.12Q35.27 8.12 35.17 8.13L35.17 8.13L35.17 8.13Q35.55 8.01 35.92 7.84L35.92 7.84L35.92 7.84Q36.25 7.69 36.64 7.48L36.64 7.48L36.64 7.48Q37.03 7.28 37.39 7.01L37.39 7.01L37.39 7.01Q37.44 7.20 37.46 7.51L37.46 7.51L37.46 7.51Q37.49 7.83 37.52 8.22L37.52 8.22L37.52 8.22Q37.55 8.62 37.56 9.07L37.56 9.07L37.56 9.07Q37.58 9.52 37.60 9.95L37.60 9.95L37.60 9.95Q37.81 9.48 38.09 8.97L38.09 8.97L38.09 8.97Q38.37 8.46 38.70 8.03L38.70 8.03L38.70 8.03Q39.02 7.60 39.38 7.33L39.38 7.33L39.38 7.33Q39.75 7.06 40.11 7.06Z"></path></g><!----><g data-v-423bf9ae="" id="83d999ec-6da3-4fe6-b183-61f517208646" transform="matrix(2.8125,0,0,2.8125,0,0)" stroke="none" fill="black"><path d="M9.382 8.675h13.943v13.943L32 31.293V0H.707zM22.618 23.325H8.675V9.382L0 .707V32h31.293z"></path></g><!----><g data-v-423bf9ae="" id="1123e19e-578b-4f43-9671-cde5c6487fb5" fill="black" transform="matrix(0.5049609112585438,0,0,0.5049609112585438,109.57583312734994,57.13182101052553)"><path d="M0.84 6.97L0.84 5.88L7.73 5.88L7.73 6.97L4.87 6.97L4.87 15.68L3.70 15.68L3.70 6.97L0.84 6.97ZM16.88 15.68L16.88 5.88L22.82 5.88L22.82 6.97L18.06 6.97L18.06 10.22L22.74 10.22L22.74 11.31L18.06 11.31L18.06 14.59L22.90 14.59L22.90 15.68L16.88 15.68ZM35.48 14.78L35.48 14.78L35.48 14.78Q36.08 14.78 36.50 14.58L36.50 14.58L36.50 14.58Q36.93 14.38 37.20 14.04L37.20 14.04L37.20 14.04Q37.48 13.69 37.61 13.25L37.61 13.25L37.61 13.25Q37.74 12.81 37.74 12.32L37.74 12.32L37.74 12.15L38.92 12.15L38.92 12.32L38.92 12.32Q38.92 13.06 38.70 13.71L38.70 13.71L38.70 13.71Q38.47 14.36 38.04 14.85L38.04 14.85L38.04 14.85Q37.60 15.33 36.96 15.60L36.96 15.60L36.96 15.60Q36.32 15.88 35.48 15.88L35.48 15.88L35.48 15.88Q33.85 15.88 32.94 14.85L32.94 14.85L32.94 14.85Q32.03 13.83 32.03 11.87L32.03 11.87L32.03 9.69L32.03 9.69Q32.03 7.78 32.94 6.73L32.94 6.73L32.94 6.73Q33.85 5.68 35.48 5.68L35.48 5.68L35.48 5.68Q36.32 5.68 36.96 5.96L36.96 5.96L36.96 5.96Q37.60 6.23 38.04 6.71L38.04 6.71L38.04 6.71Q38.47 7.20 38.70 7.85L38.70 7.85L38.70 7.85Q38.92 8.50 38.92 9.24L38.92 9.24L38.92 9.41L37.74 9.41L37.74 9.24L37.74 9.24Q37.73 8.76 37.60 8.32L37.60 8.32L37.60 8.32Q37.46 7.87 37.19 7.53L37.19 7.53L37.19 7.53Q36.92 7.18 36.50 6.98L36.50 6.98L36.50 6.98Q36.08 6.78 35.48 6.78L35.48 6.78L35.48 6.78Q34.34 6.78 33.77 7.60L33.77 7.60L33.77 7.60Q33.21 8.43 33.21 9.77L33.21 9.77L33.21 11.79L33.21 11.79Q33.21 13.23 33.77 14.01L33.77 14.01L33.77 14.01Q34.34 14.78 35.48 14.78ZM47.73 15.68L47.73 5.88L48.90 5.88L48.90 10.22L53.07 10.22L53.07 5.88L54.25 5.88L54.25 15.68L53.07 15.68L53.07 11.31L48.90 11.31L48.90 15.68L47.73 15.68ZM65.65 5.88L68.47 15.18L68.64 15.18L68.64 5.88L69.82 5.88L69.82 15.68L67.47 15.68L64.64 6.38L64.47 6.38L64.47 15.68L63.29 15.68L63.29 5.88L65.65 5.88ZM78.68 11.87L78.68 9.69L78.68 9.69Q78.68 7.78 79.59 6.73L79.59 6.73L79.59 6.73Q80.50 5.68 82.12 5.68L82.12 5.68L82.12 5.68Q83.75 5.68 84.66 6.73L84.66 6.73L84.66 6.73Q85.57 7.78 85.57 9.69L85.57 9.69L85.57 11.87L85.57 11.87Q85.57 13.83 84.66 14.85L84.66 14.85L84.66 14.85Q83.75 15.88 82.12 15.88L82.12 15.88L82.12 15.88Q80.50 15.88 79.59 14.85L79.59 14.85L79.59 14.85Q78.68 13.83 78.68 11.87L78.68 11.87ZM82.12 14.78L82.12 14.78L82.12 14.78Q83.26 14.78 83.83 14.01L83.83 14.01L83.83 14.01Q84.39 13.23 84.39 11.79L84.39 11.79L84.39 9.77L84.39 9.77Q84.39 8.43 83.83 7.60L83.83 7.60L83.83 7.60Q83.26 6.78 82.12 6.78L82.12 6.78L82.12 6.78Q80.99 6.78 80.42 7.60L80.42 7.60L80.42 7.60Q79.86 8.43 79.86 9.77L79.86 9.77L79.86 11.79L79.86 11.79Q79.86 13.23 80.42 14.01L80.42 14.01L80.42 14.01Q80.99 14.78 82.12 14.78ZM94.63 15.68L94.63 5.88L95.80 5.88L95.80 14.59L100.93 14.59L100.93 15.68L94.63 15.68ZM109.82 11.87L109.82 9.69L109.82 9.69Q109.82 7.78 110.73 6.73L110.73 6.73L110.73 6.73Q111.64 5.68 113.26 5.68L113.26 5.68L113.26 5.68Q114.88 5.68 115.79 6.73L115.79 6.73L115.79 6.73Q116.70 7.78 116.70 9.69L116.70 9.69L116.70 11.87L116.70 11.87Q116.70 13.83 115.79 14.85L115.79 14.85L115.79 14.85Q114.88 15.88 113.26 15.88L113.26 15.88L113.26 15.88Q111.64 15.88 110.73 14.85L110.73 14.85L110.73 14.85Q109.82 13.83 109.82 11.87L109.82 11.87ZM113.26 14.78L113.26 14.78L113.26 14.78Q114.39 14.78 114.96 14.01L114.96 14.01L114.96 14.01Q115.53 13.23 115.53 11.79L115.53 11.79L115.53 9.77L115.53 9.77Q115.53 8.43 114.96 7.60L114.96 7.60L114.96 7.60Q114.39 6.78 113.26 6.78L113.26 6.78L113.26 6.78Q112.13 6.78 111.56 7.60L111.56 7.60L111.56 7.60Q110.99 8.43 110.99 9.77L110.99 9.77L110.99 11.79L110.99 11.79Q110.99 13.23 111.56 14.01L111.56 14.01L111.56 14.01Q112.13 14.78 113.26 14.78ZM127.89 12.07L127.89 10.98L132.26 10.98L132.26 15.68L131.17 15.68L131.17 14.50L131.00 14.50L131.00 14.50Q130.76 15.12 130.16 15.50L130.16 15.50L130.16 15.50Q129.56 15.88 128.76 15.88L128.76 15.88L128.76 15.88Q127.18 15.88 126.27 14.85L126.27 14.85L126.27 14.85Q125.37 13.83 125.37 11.87L125.37 11.87L125.37 9.69L125.37 9.69Q125.37 7.78 126.28 6.73L126.28 6.73L126.28 6.73Q127.19 5.68 128.81 5.68L128.81 5.68L128.81 5.68Q129.65 5.68 130.30 5.96L130.30 5.96L130.30 5.96Q130.94 6.23 131.38 6.71L131.38 6.71L131.38 6.71Q131.81 7.20 132.03 7.85L132.03 7.85L132.03 7.85Q132.26 8.50 132.26 9.24L132.26 9.24L132.26 9.41L131.08 9.41L131.08 9.24L131.08 9.24Q131.08 8.76 130.95 8.32L130.95 8.32L130.95 8.32Q130.82 7.87 130.54 7.53L130.54 7.53L130.54 7.53Q130.27 7.18 129.84 6.98L129.84 6.98L129.84 6.98Q129.42 6.78 128.81 6.78L128.81 6.78L128.81 6.78Q127.68 6.78 127.11 7.60L127.11 7.60L127.11 7.60Q126.55 8.43 126.55 9.77L126.55 9.77L126.55 11.79L126.55 11.79Q126.55 13.23 127.11 14.01L127.11 14.01L127.11 14.01Q127.68 14.78 128.84 14.78L128.84 14.78L128.84 14.78Q129.89 14.78 130.49 14.11L130.49 14.11L130.49 14.11Q131.08 13.44 131.08 12.24L131.08 12.24L131.08 12.07L127.89 12.07ZM143.81 15.68L143.81 12.24L143.56 12.24L140.49 5.88L141.81 5.88L144.31 11.23L144.48 11.23L146.99 5.88L148.30 5.88L145.24 12.24L144.98 12.24L144.98 15.68L143.81 15.68Z"></path></g></svg>