<svg data-v-fde0c5aa="" xmlns="http://www.w3.org/2000/svg" viewBox="0 0 300 300" class="iconLeftSlogan"><!----><defs data-v-fde0c5aa=""><!----></defs><rect data-v-fde0c5aa="" fill="transparent" x="0" y="0" width="300px" height="300px" class="logo-background-square"></rect><defs data-v-fde0c5aa=""><!----></defs><g data-v-fde0c5aa="" id="827a2a99-1925-4e62-b0b8-9fafd214b0a1" fill="#2e3034" transform="matrix(3.3358866831994427,0,0,3.3358866831994427,151.9839872255654,105.54029157822042)"><path d="M1.40 12.87L1.40 12.87L1.40 12.87Q0.77 12.87 0.67 12.99L0.67 12.99L0.67 12.99Q0.20 13.61-1.29 16.46L-1.29 16.46L-1.29 16.46Q-2.79 19.32-3.19 20.48L-3.19 20.48L-3.19 20.48Q-3.25 20.65-3.46 20.65L-3.46 20.65L-3.46 20.65Q-3.67 20.65-3.95 20.34L-3.95 20.34L-3.95 20.34Q-4.23 20.03-4.23 19.68L-4.23 19.68L-4.23 19.68Q-4.23 19.19-2.83 16.71L-2.83 16.71L-2.83 16.71Q-1.43 14.22 0.50 10.98L0.50 10.98L0.50 10.98Q2.42 7.73 2.75 7.11L2.75 7.11L2.75 7.11Q3.08 6.48 3.09 6.45L3.09 6.45L3.09 6.45Q3.11 6.41 3.19 6.31L3.19 6.31L3.19 6.31Q3.28 6.20 3.39 6.13L3.39 6.13L3.39 6.13Q3.71 5.92 4.24 5.92L4.24 5.92L4.24 5.92Q4.54 5.92 4.54 6.10L4.54 6.10L4.54 6.10Q4.54 6.19 4.15 6.78L4.15 6.78L4.15 6.78Q3.77 7.36 3.77 7.50L3.77 7.50L3.77 7.50Q3.77 7.64 3.86 7.64L3.86 7.64L3.86 7.64Q3.96 7.64 4.23 7.48L4.23 7.48L4.23 7.48Q5.05 6.96 5.75 6.96L5.75 6.96L5.75 6.96Q6.03 6.96 6.26 7.18L6.26 7.18L6.26 7.18Q6.48 7.41 6.48 7.92L6.48 7.92L6.48 7.92Q6.48 9.06 5.81 10.20L5.81 10.20L5.81 10.20Q5.14 11.34 3.94 12.10L3.94 12.10L3.94 12.10Q2.74 12.87 1.40 12.87ZM5.01 8.65L5.01 8.65L5.01 8.65Q5.01 8.46 4.93 8.34L4.93 8.34L4.93 8.34Q4.84 8.22 4.72 8.22L4.72 8.22L4.72 8.22Q4.21 8.22 3.61 8.69L3.61 8.69L3.61 8.69Q3.01 9.17 2.57 9.77L2.57 9.77L2.57 9.77Q2.13 10.37 1.83 10.88L1.83 10.88L1.83 10.88Q1.53 11.38 1.53 11.52L1.53 11.52L1.53 11.52Q1.53 11.66 1.73 11.80L1.73 11.80L1.73 11.80Q1.93 11.94 2.21 11.94L2.21 11.94L2.21 11.94Q3.09 11.94 4.05 10.74L4.05 10.74L4.05 10.74Q5.01 9.53 5.01 8.65ZM10.74 10.57L10.74 10.57Q10.47 10.57 10.33 10.30L10.33 10.30L10.33 10.30Q10.19 10.02 10.19 9.77L10.19 9.77L10.19 9.77Q10.19 9.51 10.36 9.17L10.36 9.17L10.36 9.17Q10.36 8.99 10.22 8.99L10.22 8.99L10.22 8.99Q9.67 8.99 8.97 9.64L8.97 9.64L8.97 9.64Q8.27 10.29 7.80 10.98L7.80 10.98L7.80 10.98Q7.32 11.68 6.93 12.38L6.93 12.38L6.93 12.38Q6.69 12.80 5.95 12.80L5.95 12.80L5.95 12.80Q5.57 12.80 5.57 12.63L5.57 12.63L5.57 12.63Q5.57 12.25 6.95 9.81L6.95 9.81L6.95 9.81Q8.33 7.36 8.78 7.20L8.78 7.20L8.78 7.20Q9.09 7.04 9.47 7.04L9.47 7.04L9.47 7.04Q9.86 7.04 9.86 7.20L9.86 7.20L9.86 7.20Q9.86 7.36 9.53 7.83L9.53 7.83L9.53 7.83Q9.21 8.29 9.21 8.41L9.21 8.41L9.21 8.41Q9.21 8.54 9.31 8.54L9.31 8.54L9.31 8.54Q9.37 8.54 9.62 8.37L9.62 8.37L9.62 8.37Q10.23 7.91 11.13 7.42L11.13 7.42L11.26 7.25L11.26 7.25Q11.59 6.83 12.23 6.83L12.23 6.83L12.23 6.83Q12.87 6.83 12.87 7.08L12.87 7.08L12.87 7.08Q12.84 7.15 12.73 7.31L12.73 7.31L12.73 7.31Q11.62 8.82 10.86 10.47L10.86 10.47L10.86 10.47Q10.81 10.57 10.74 10.57L10.74 10.57ZM14.53 11.86L14.53 11.86L14.56 11.56L14.56 11.56Q14.56 11.45 14.48 11.45L14.48 11.45L14.48 11.45Q14.35 11.45 13.96 11.82L13.96 11.82L13.96 11.82Q13.58 12.18 13.00 12.55L13.00 12.55L13.00 12.55Q12.42 12.92 11.84 12.92L11.84 12.92L11.84 12.92Q11.26 12.92 11.26 12.07L11.26 12.07L11.26 12.07Q11.26 11.00 12.18 9.62L12.18 9.62L12.18 9.62Q12.66 8.92 13.28 8.32L13.28 8.32L13.28 8.32Q13.90 7.73 14.80 7.34L14.80 7.34L14.80 7.34Q15.69 6.96 16.67 6.96L16.67 6.96L16.67 6.96Q17.19 6.96 17.56 7.23L17.56 7.23L17.56 7.23Q17.92 7.50 17.92 7.90L17.92 7.90L17.92 7.90Q17.92 8.30 17.68 8.30L17.68 8.30L17.68 8.30Q17.56 8.30 17.35 8.15L17.35 8.15L17.35 8.15Q16.95 7.88 16.11 7.88L16.11 7.88L16.11 7.88Q15.01 7.88 14.02 8.88L14.02 8.88L14.02 8.88Q13.03 9.88 13.03 10.86L13.03 10.86L13.03 10.86Q13.03 10.99 13.11 11.10L13.11 11.10L13.11 11.10Q13.19 11.21 13.33 11.21L13.33 11.21L13.33 11.21Q13.75 11.21 14.41 10.63L14.41 10.63L14.41 10.63Q15.06 10.05 15.69 8.96L15.69 8.96L15.69 8.96Q15.74 8.83 16.00 8.72L16.00 8.72L16.00 8.72Q16.27 8.61 16.63 8.61L16.63 8.61L16.63 8.61Q17.15 8.65 17.15 8.83L17.15 8.83L17.15 8.83Q17.15 8.85 17.05 9.01L17.05 9.01L17.05 9.01Q16.94 9.17 16.67 9.59L16.67 9.59L16.67 9.59Q16.41 10.01 15.93 10.97L15.93 10.97L15.93 10.97Q15.44 11.93 15.36 12.49L15.36 12.49L15.36 12.49Q15.34 12.66 15.22 12.66L15.22 12.66L15.22 12.66Q14.53 12.66 14.53 11.86ZM22.85 7.17L22.85 7.17L22.85 7.17Q23.45 7.17 23.45 7.87L23.45 7.87L23.45 7.87Q23.45 8.57 22.96 9.63L22.96 9.63L22.96 9.63Q22.25 11.13 21.34 12.22L21.34 12.22L21.34 12.22Q20.90 12.74 20.24 12.74L20.24 12.74L20.24 12.74Q20.03 12.74 20.03 12.63L20.03 12.63L20.09 12.47L20.09 12.47Q20.75 11.51 21.26 10.48L21.26 10.48L21.26 10.48Q21.77 9.45 21.77 8.99L21.77 8.99L21.77 8.99Q21.77 8.90 21.72 8.85L21.72 8.85L21.72 8.85Q21.67 8.79 21.56 8.78L21.56 8.78L21.56 8.78Q20.99 8.78 20.01 9.72L20.01 9.72L20.01 9.72Q19.04 10.65 18.33 11.61L18.33 11.61L18.33 11.61Q17.63 12.56 17.42 12.93L17.42 12.93L17.42 12.93Q17.22 13.30 17.01 13.38L17.01 13.38L17.01 13.38Q16.80 13.45 16.32 13.45L16.32 13.45L16.32 13.45Q15.85 13.45 15.85 13.29L15.85 13.29L15.85 13.29Q15.85 13.23 15.98 13.02L15.98 13.02L15.98 13.02Q16.11 12.81 16.99 11.13L16.99 11.13L16.99 11.13Q17.86 9.45 18.84 7.71L18.84 7.71L18.84 7.71Q19.81 5.96 20.97 4.14L20.97 4.14L20.97 4.14Q22.12 2.32 23.28 1.17L23.28 1.17L23.28 1.17Q24.43 0.01 25.28 0.01L25.28 0.01L25.28 0.01Q25.94 0.01 25.94 0.78L25.94 0.78L25.94 0.78Q25.94 2.27 24.59 3.96L24.59 3.96L24.59 3.96Q23.24 5.66 22.12 6.17L22.12 6.17L22.12 6.17Q21.87 6.29 21.60 6.29L21.60 6.29L21.60 6.29Q21.32 6.29 21.32 6.16L21.32 6.16L21.41 6.02L21.41 6.02Q22.78 5.07 23.58 3.82L23.58 3.82L23.58 3.82Q24.39 2.58 24.39 2.07L24.39 2.07L24.39 2.07Q24.39 1.90 24.35 1.84L24.35 1.84L24.35 1.84Q24.30 1.78 24.15 1.78L24.15 1.78L24.15 1.78Q23.65 1.78 22.51 3.42L22.51 3.42L22.51 3.42Q21.36 5.05 20.45 6.79L20.45 6.79L20.45 6.79Q19.54 8.53 19.54 8.90L19.54 8.90L19.54 8.90Q19.54 9.06 19.65 9.06L19.65 9.06L19.65 9.06Q19.75 9.06 19.94 8.92L19.94 8.92L19.94 8.92Q20.15 8.72 20.48 8.43L20.48 8.43L20.48 8.43Q20.80 8.13 21.58 7.65L21.58 7.65L21.58 7.65Q22.36 7.17 22.85 7.17ZM23.35 13.06L23.35 13.06L23.35 13.06Q23.16 13.06 22.92 12.82L22.92 12.82L22.92 12.82Q22.68 12.57 22.68 12.22L22.68 12.22L22.68 12.22Q22.68 12.03 23.60 10.24L23.60 10.24L23.60 10.24Q24.51 8.46 24.54 7.83L24.54 7.83L24.54 7.83Q24.54 7.63 24.79 7.46L24.79 7.46L24.79 7.46Q25.24 7.20 26.12 7.20L26.12 7.20L26.12 7.20Q26.29 7.20 26.48 7.26L26.48 7.26L26.48 7.26Q26.67 7.32 26.67 7.43L26.67 7.43L26.67 7.43Q26.67 7.49 26.63 7.53L26.63 7.53L26.63 7.53Q26.10 8.20 25.07 9.95L25.07 9.95L25.07 9.95Q24.05 11.70 23.53 12.80L23.53 12.80L23.53 12.80Q23.46 13.06 23.35 13.06ZM26.42 6.41L26.42 6.41L26.42 6.41Q25.80 6.41 25.77 5.92L25.77 5.92L25.77 5.91L25.77 5.91Q25.77 5.49 26.19 5.22L26.19 5.22L26.19 5.22Q26.60 4.96 27.01 4.96L27.01 4.96L27.01 4.96Q27.62 4.96 27.65 5.45L27.65 5.45L27.65 5.45Q27.65 5.87 27.24 6.14L27.24 6.14L27.24 6.14Q26.84 6.41 26.42 6.41ZM30.25 10.57L30.25 10.57Q29.99 10.57 29.85 10.30L29.85 10.30L29.85 10.30Q29.71 10.02 29.71 9.77L29.71 9.77L29.71 9.77Q29.71 9.51 29.88 9.17L29.88 9.17L29.88 9.17Q29.88 8.99 29.74 8.99L29.74 8.99L29.74 8.99Q29.19 8.99 28.49 9.64L28.49 9.64L28.49 9.64Q27.79 10.29 27.31 10.98L27.31 10.98L27.31 10.98Q26.84 11.68 26.45 12.38L26.45 12.38L26.45 12.38Q26.21 12.80 25.47 12.80L25.47 12.80L25.47 12.80Q25.09 12.80 25.09 12.63L25.09 12.63L25.09 12.63Q25.09 12.25 26.47 9.81L26.47 9.81L26.47 9.81Q27.85 7.36 28.29 7.20L28.29 7.20L28.29 7.20Q28.60 7.04 28.99 7.04L28.99 7.04L28.99 7.04Q29.37 7.04 29.37 7.20L29.37 7.20L29.37 7.20Q29.37 7.36 29.05 7.83L29.05 7.83L29.05 7.83Q28.73 8.29 28.73 8.41L28.73 8.41L28.73 8.41Q28.73 8.54 28.83 8.54L28.83 8.54L28.83 8.54Q28.88 8.54 29.13 8.37L29.13 8.37L29.13 8.37Q29.75 7.91 30.65 7.42L30.65 7.42L30.77 7.25L30.77 7.25Q31.11 6.83 31.75 6.83L31.75 6.83L31.75 6.83Q32.38 6.83 32.38 7.08L32.38 7.08L32.38 7.08Q32.35 7.15 32.24 7.31L32.24 7.31L32.24 7.31Q31.14 8.82 30.38 10.47L30.38 10.47L30.38 10.47Q30.32 10.57 30.25 10.57L30.25 10.57Z"></path></g><defs data-v-fde0c5aa=""><!----></defs><g data-v-fde0c5aa="" id="69922c81-52f7-4fde-a9dd-691d21033e76" stroke="none" fill="#488eff" transform="matrix(1.1213855910704495,0,0,1.1213855910704495,25.441051093575176,94.03556801436821)"><g clip-rule="evenodd"><path d="M12.983 10.59l17.018 88.223-5.872-59.049 29.021-1.892-.054-9.883L64.549 1 53.622 18.977z"></path><path d="M59.389 54.548l5.16-53.541-8.74 39.716-19.612 1.045 1.57 20.462-7.766 36.583 12.057-39.899z"></path><path d="M62.8 67.182l.549-10.453-15.979 3.755-.032 11.797-17.337 26.532 21.68-27.616zM65.711 62.394l14.841-4.731 1.509-12.532-15.899 2.095zM72.07 44.502l10.988-1.417 1.581-10.278-8.079-.373L64.549 1l8.43 30.967z"></path><path d="M87.413 31.294l1.256-9.506-9.544-2.694L64.549 1l14.483 22.437-.422 7z"></path></g></g><defs data-v-fde0c5aa=""><!----></defs><g data-v-fde0c5aa="" id="19b11123-3598-44da-b6a2-d3e2a5fd3405" fill="#2e3034" transform="matrix(0.7565311221519834,0,0,0.7565311221519834,137.752141515166,182.26267044222396)"><path d="M0.66 5.35L0.16 5.33L0.16 5.33Q0.28 4.17 0.36 3.08L0.36 3.08L8.44 3.08L8.44 3.08Q8.36 4.13 8.33 4.53L8.33 4.53L8.33 4.53Q8.29 5.26 8.27 5.32L8.27 5.32L7.77 5.30L7.77 5.30Q7.85 4.34 7.85 4.16L7.85 4.16L7.85 4.16Q7.85 3.88 7.71 3.79L7.71 3.79L7.71 3.79Q7.54 3.69 7.14 3.69L7.14 3.69L5.53 3.69L5.53 3.69Q5.02 3.69 4.90 3.79L4.90 3.79L4.90 3.79Q4.81 3.87 4.80 4.36L4.80 4.36L4.80 11.22L4.80 11.22Q4.80 11.66 4.94 11.76L4.94 11.76L4.94 11.76Q5.10 11.87 5.61 11.87L5.61 11.87L6.17 11.87L6.19 12.41L2.50 12.40L2.50 11.87L2.71 11.87L2.71 11.87Q3.38 11.87 3.53 11.79L3.53 11.79L3.53 11.79Q3.67 11.70 3.67 11.28L3.67 11.28L3.67 4.48L3.67 4.48Q3.67 3.92 3.57 3.80L3.57 3.80L3.57 3.80Q3.47 3.69 3.05 3.69L3.05 3.69L1.58 3.69L1.58 3.69Q1.39 3.69 1.33 3.71L1.33 3.71L1.33 3.71Q1.26 3.72 1.15 3.72L1.15 3.72L1.15 3.72Q1.12 3.72 1.00 3.79L1.00 3.79L1.00 3.79Q0.92 3.84 0.90 3.86L0.90 3.86L0.90 3.86Q0.87 3.88 0.83 3.99L0.83 3.99L0.83 3.99Q0.80 4.05 0.77 4.14L0.77 4.14L0.77 4.14Q0.75 4.21 0.72 4.36L0.72 4.36L0.72 4.36Q0.70 4.59 0.70 4.61L0.70 4.61L0.70 4.61Q0.70 4.80 0.68 4.95L0.68 4.95L0.68 4.95Q0.68 5.02 0.68 5.15L0.68 5.15L0.68 5.15Q0.67 5.29 0.66 5.35L0.66 5.35ZM16.19 3.64L16.18 3.08L23.39 3.08L23.39 3.08Q23.41 4.14 23.46 5.28L23.46 5.28L22.91 5.30L22.91 5.30Q22.90 4.66 22.85 4.25L22.85 4.25L22.85 4.25Q22.80 3.89 22.75 3.80L22.75 3.80L22.75 3.80Q22.70 3.71 22.58 3.69L22.58 3.69L22.58 3.69Q22.48 3.68 21.90 3.68L21.90 3.68L19.52 3.68L19.52 3.68Q18.97 3.68 18.83 3.77L18.83 3.77L18.83 3.77Q18.70 3.86 18.70 4.33L18.70 4.33L18.70 6.28L18.70 6.28Q18.70 6.69 18.76 6.76L18.76 6.76L18.76 6.76Q18.83 6.84 19.17 6.84L19.17 6.84L21.28 6.84L21.28 6.84Q21.64 6.84 21.72 6.73L21.72 6.73L21.72 6.73Q21.81 6.63 21.81 6.14L21.81 6.14L21.81 5.61L22.33 5.63L22.33 8.97L21.81 8.97L21.81 8.24L21.81 8.24Q21.81 7.66 21.74 7.57L21.74 7.57L21.74 7.57Q21.66 7.46 21.31 7.46L21.31 7.46L19.21 7.46L19.21 7.46Q18.87 7.46 18.79 7.54L18.79 7.54L18.79 7.54Q18.70 7.63 18.70 7.89L18.70 7.89L18.70 11.20L18.70 11.20Q18.70 11.57 18.79 11.67L18.79 11.67L18.79 11.67Q18.87 11.77 19.15 11.77L19.15 11.77L19.15 11.77Q22.07 11.75 22.59 11.69L22.59 11.69L22.59 11.69Q23.11 11.63 23.19 11.38L23.19 11.38L23.20 11.36L23.21 11.35L23.43 10.17L23.91 10.25L23.56 12.41L16.46 12.41L16.46 11.87L16.83 11.87L16.83 11.87Q17.39 11.87 17.47 11.80L17.47 11.80L17.47 11.80Q17.57 11.72 17.57 11.33L17.57 11.33L17.57 4.24L17.57 4.24Q17.57 3.82 17.42 3.73L17.42 3.73L17.42 3.73Q17.25 3.64 16.59 3.64L16.59 3.64L16.19 3.64ZM32.17 8.02L32.17 8.02L32.17 8.02Q32.17 6.86 32.64 5.83L32.64 5.83L32.64 5.83Q33.11 4.85 33.86 4.27L33.86 4.27L33.86 4.27Q34.60 3.69 35.50 3.37L35.50 3.37L35.50 3.37Q36.39 3.05 37.24 3.05L37.24 3.05L37.24 3.05Q38.10 3.05 38.77 3.16L38.77 3.16L38.77 3.16Q39.40 3.26 39.70 3.37L39.70 3.37L39.70 3.37Q40.00 3.48 40.04 3.48L40.04 3.48L40.04 3.48Q40.21 3.48 40.23 3.41L40.23 3.41L40.23 3.41Q40.26 3.33 40.26 3.09L40.26 3.09L40.26 2.97L40.79 2.97L40.79 2.97Q40.83 4.30 40.96 5.64L40.96 5.64L40.46 5.65L40.46 5.65Q40.43 5.40 40.41 5.26L40.41 5.26L40.41 5.26Q40.41 5.20 40.41 5.13L40.41 5.13L40.41 5.13Q40.40 5.07 40.39 5.02L40.39 5.02L40.39 5.02Q40.39 4.98 40.39 4.95L40.39 4.95L40.39 4.95Q40.36 4.84 40.36 4.74L40.36 4.74L40.36 4.74Q40.36 4.68 40.32 4.59L40.32 4.59L40.32 4.59Q40.32 4.57 40.29 4.55L40.29 4.55L40.29 4.55Q40.26 4.52 40.26 4.50L40.26 4.50L40.26 4.50Q40.23 4.44 40.16 4.41L40.16 4.41L40.16 4.41Q40.12 4.38 40.09 4.37L40.09 4.37L40.09 4.37Q40.07 4.36 40.04 4.35L40.04 4.35L40.04 4.35Q40.02 4.35 40.00 4.33L40.00 4.33L40.00 4.33Q39.98 4.31 39.94 4.29L39.94 4.29L39.94 4.29Q39.89 4.27 39.85 4.25L39.85 4.25L39.85 4.25Q39.63 4.16 39.60 4.14L39.60 4.14L39.60 4.14Q39.25 3.96 38.61 3.83L38.61 3.83L38.61 3.83Q37.94 3.71 37.28 3.71L37.28 3.71L37.28 3.71Q35.55 3.71 34.46 4.84L34.46 4.84L34.46 4.84Q33.35 5.99 33.36 7.62L33.36 7.62L33.36 7.62Q33.36 9.35 34.58 10.69L34.58 10.69L34.58 10.69Q35.78 12.02 37.60 12.02L37.60 12.02L37.60 12.02Q38.60 12.02 39.55 11.49L39.55 11.49L39.55 11.49Q40.50 10.94 40.52 10.58L40.52 10.58L40.56 9.41L41.06 9.41L40.97 11.45L40.97 11.45Q40.91 11.49 40.78 11.57L40.78 11.57L40.78 11.57Q40.72 11.60 40.26 11.85L40.26 11.85L40.26 11.85Q39.88 12.05 39.44 12.23L39.44 12.23L39.44 12.23Q39.07 12.39 38.42 12.51L38.42 12.51L38.42 12.51Q37.82 12.63 37.25 12.64L37.25 12.64L37.25 12.64Q34.87 12.64 33.51 11.39L33.51 11.39L33.51 11.39Q32.17 10.14 32.17 8.02ZM49.46 3.64L49.09 3.64L49.09 3.08L52.58 3.08L52.58 3.64L52.21 3.64L52.21 3.64Q51.71 3.64 51.56 3.75L51.56 3.75L51.56 3.75Q51.42 3.84 51.41 4.25L51.41 4.25L51.41 6.91L55.97 6.91L55.97 4.14L55.97 4.14Q55.97 3.77 55.87 3.71L55.87 3.71L55.87 3.71Q55.76 3.64 55.23 3.64L55.23 3.64L54.65 3.64L54.63 3.08L58.19 3.08L58.19 3.64L57.80 3.64L57.80 3.64Q57.32 3.64 57.21 3.74L57.21 3.74L57.21 3.74Q57.10 3.83 57.10 4.22L57.10 4.22L57.10 11.29L57.10 11.29Q57.10 11.67 57.24 11.77L57.24 11.77L57.24 11.77Q57.39 11.87 57.94 11.87L57.94 11.87L58.41 11.87L58.40 12.41L54.91 12.41L54.90 11.87L55.31 11.87L55.31 11.87Q55.77 11.87 55.87 11.77L55.87 11.77L55.87 11.77Q55.97 11.67 55.97 11.25L55.97 11.25L55.97 7.58L51.41 7.58L51.41 11.25L51.41 11.25Q51.41 11.67 51.57 11.77L51.57 11.77L51.57 11.77Q51.72 11.87 52.42 11.87L52.42 11.87L52.83 11.87L52.80 12.41L49.22 12.41L49.21 11.87L49.57 11.87L49.57 11.87Q50.11 11.87 50.18 11.80L50.18 11.80L50.18 11.80Q50.28 11.70 50.28 11.25L50.28 11.25L50.28 4.09L50.28 4.09Q50.28 3.76 50.14 3.71L50.14 3.71L50.14 3.71Q49.97 3.64 49.46 3.64L49.46 3.64ZM66.17 3.64L66.15 3.08L68.33 3.08L74.06 10.48L74.06 4.14L74.06 4.14Q74.06 3.81 73.91 3.72L73.91 3.72L73.91 3.72Q73.75 3.64 73.29 3.64L73.29 3.64L72.80 3.64L72.83 3.08L75.81 3.08L75.81 3.64L75.49 3.64L75.49 3.64Q75.02 3.64 74.87 3.75L74.87 3.75L74.87 3.75Q74.72 3.86 74.72 4.25L74.72 4.25L74.72 12.32L74.72 12.47L74.72 12.47Q74.72 12.52 74.71 12.57L74.71 12.57L74.71 12.57Q74.70 12.61 74.66 12.64L74.66 12.64L74.66 12.64Q74.65 12.65 74.59 12.65L74.59 12.65L74.40 12.65L74.34 12.65L74.31 12.65L74.29 12.64L74.29 12.64Q74.26 12.64 74.25 12.63L74.25 12.63L74.25 12.63Q74.23 12.61 74.23 12.60L74.23 12.60L74.23 12.60Q74.23 12.58 74.22 12.57L74.22 12.57L74.22 12.57Q74.19 12.54 74.16 12.50L74.16 12.50L74.16 12.50Q74.15 12.48 74.13 12.45L74.13 12.45L74.13 12.45Q74.11 12.41 74.09 12.40L74.09 12.40L67.99 4.56L68.06 11.22L68.06 11.22Q68.06 11.67 68.22 11.77L68.22 11.77L68.22 11.77Q68.38 11.87 69.09 11.87L69.09 11.87L69.33 11.87L69.33 12.41L66.39 12.41L66.39 11.87L66.81 11.87L66.81 11.87Q67.19 11.87 67.30 11.76L67.30 11.76L67.30 11.76Q67.40 11.66 67.40 11.25L67.40 11.25L67.40 3.80L67.26 3.64L66.17 3.64ZM83.93 7.83L83.93 7.83L83.93 7.83Q83.93 6.62 84.33 5.68L84.33 5.68L84.33 5.68Q84.75 4.72 85.44 4.12L85.44 4.12L85.44 4.12Q86.13 3.51 86.99 3.19L86.99 3.19L86.99 3.19Q87.83 2.88 88.79 2.88L88.79 2.88L88.79 2.88Q90.04 2.88 91.10 3.40L91.10 3.40L91.10 3.40Q92.18 3.93 92.89 5.07L92.89 5.07L92.89 5.07Q93.58 6.17 93.59 7.75L93.59 7.75L93.59 7.75Q93.59 8.70 93.28 9.54L93.28 9.54L93.28 9.54Q92.98 10.38 92.37 11.10L92.37 11.10L92.37 11.10Q91.77 11.81 90.83 12.22L90.83 12.22L90.83 12.22Q89.87 12.63 88.68 12.64L88.68 12.64L88.68 12.64Q87.54 12.64 86.60 12.23L86.60 12.23L86.60 12.23Q85.67 11.83 85.11 11.14L85.11 11.14L85.11 11.14Q84.53 10.45 84.24 9.60L84.24 9.60L84.24 9.60Q83.93 8.72 83.93 7.83ZM85.19 7.38L85.19 7.38L85.19 7.38Q85.19 8.52 85.62 9.60L85.62 9.60L85.62 9.60Q86.02 10.64 86.95 11.33L86.95 11.33L86.95 11.33Q87.86 12.03 89.05 12.04L89.05 12.04L89.05 12.04Q90.43 12.04 91.36 11.01L91.36 11.01L91.36 11.01Q92.31 9.97 92.31 8.10L92.31 8.10L92.31 8.10Q92.31 5.99 91.15 4.72L91.15 4.72L91.15 4.72Q90.00 3.46 88.49 3.45L88.49 3.45L88.49 3.45Q87.97 3.45 87.43 3.65L87.43 3.65L87.43 3.65Q86.88 3.85 86.38 4.25L86.38 4.25L86.38 4.25Q85.83 4.68 85.51 5.48L85.51 5.48L85.51 5.48Q85.19 6.27 85.19 7.38ZM102.20 3.64L101.71 3.64L101.72 3.08L105.31 3.08L105.31 3.64L104.67 3.64L104.67 3.64Q104.30 3.64 104.18 3.72L104.18 3.72L104.18 3.72Q104.07 3.80 104.07 4.16L104.07 4.16L104.07 11.22L104.07 11.22Q104.07 11.57 104.16 11.67L104.16 11.67L104.16 11.67Q104.24 11.77 104.54 11.77L104.54 11.77L104.54 11.77Q107.41 11.74 108.06 11.63L108.06 11.63L108.06 11.63Q108.27 11.61 108.36 11.39L108.36 11.39L108.36 11.39Q108.44 11.17 108.64 10.05L108.64 10.05L109.13 10.08L108.66 12.41L101.90 12.41L101.89 11.87L102.28 11.87L102.28 11.87Q102.79 11.87 102.85 11.80L102.85 11.80L102.85 11.80Q102.94 11.72 102.94 11.33L102.94 11.33L102.94 4.09L102.94 4.09Q102.94 3.80 102.79 3.72L102.79 3.72L102.79 3.72Q102.63 3.64 102.20 3.64L102.20 3.64ZM117.24 7.83L117.24 7.83L117.24 7.83Q117.24 6.62 117.65 5.68L117.65 5.68L117.65 5.68Q118.06 4.72 118.75 4.12L118.75 4.12L118.75 4.12Q119.44 3.51 120.31 3.19L120.31 3.19L120.31 3.19Q121.15 2.88 122.10 2.88L122.10 2.88L122.10 2.88Q123.35 2.88 124.41 3.40L124.41 3.40L124.41 3.40Q125.49 3.93 126.20 5.07L126.20 5.07L126.20 5.07Q126.90 6.17 126.90 7.75L126.90 7.75L126.90 7.75Q126.90 8.70 126.59 9.54L126.59 9.54L126.59 9.54Q126.29 10.38 125.68 11.10L125.68 11.10L125.68 11.10Q125.08 11.81 124.14 12.22L124.14 12.22L124.14 12.22Q123.18 12.63 121.99 12.64L121.99 12.64L121.99 12.64Q120.85 12.64 119.92 12.23L119.92 12.23L119.92 12.23Q118.98 11.83 118.42 11.14L118.42 11.14L118.42 11.14Q117.84 10.45 117.55 9.60L117.55 9.60L117.55 9.60Q117.24 8.72 117.24 7.83ZM118.50 7.38L118.50 7.38L118.50 7.38Q118.50 8.52 118.93 9.60L118.93 9.60L118.93 9.60Q119.33 10.64 120.26 11.33L120.26 11.33L120.26 11.33Q121.17 12.03 122.36 12.04L122.36 12.04L122.36 12.04Q123.74 12.04 124.67 11.01L124.67 11.01L124.67 11.01Q125.62 9.97 125.62 8.10L125.62 8.10L125.62 8.10Q125.62 5.99 124.46 4.72L124.46 4.72L124.46 4.72Q123.31 3.46 121.80 3.45L121.80 3.45L121.80 3.45Q121.28 3.45 120.74 3.65L120.74 3.65L120.74 3.65Q120.20 3.85 119.69 4.25L119.69 4.25L119.69 4.25Q119.14 4.68 118.82 5.48L118.82 5.48L118.82 5.48Q118.50 6.27 118.50 7.38ZM135.40 8.24L135.40 8.24L135.40 8.24Q135.40 6.92 136.01 5.72L136.01 5.72L136.01 5.72Q136.63 4.52 137.86 3.72L137.86 3.72L137.86 3.72Q139.10 2.92 140.72 2.92L140.72 2.92L140.72 2.92Q141.99 2.92 143.58 3.57L143.58 3.57L143.58 2.86L144.14 2.86L144.23 5.92L143.68 5.93L143.59 4.48L143.59 4.48Q143.51 4.41 143.23 4.24L143.23 4.24L143.23 4.24Q142.98 4.07 142.23 3.83L142.23 3.83L142.23 3.83Q141.50 3.60 140.60 3.60L140.60 3.60L140.60 3.60Q139.62 3.60 138.85 3.93L138.85 3.93L138.85 3.93Q138.09 4.27 137.62 4.83L137.62 4.83L137.62 4.83Q137.16 5.39 136.91 6.08L136.91 6.08L136.91 6.08Q136.66 6.78 136.66 7.57L136.66 7.57L136.66 7.57Q136.66 9.33 137.78 10.69L137.78 10.69L137.78 10.69Q138.90 12.05 140.76 12.05L140.76 12.05L140.76 12.05Q141.46 12.05 142.09 11.85L142.09 11.85L142.09 11.85Q142.72 11.66 142.94 11.48L142.94 11.48L143.18 11.28L143.18 8.78L141.52 8.78L141.50 8.23L145.37 8.23L145.38 8.78L144.31 8.78L144.31 11.64L143.53 11.98L143.53 11.98Q142.83 12.30 142.60 12.39L142.60 12.39L142.60 12.39Q142.35 12.48 141.71 12.61L141.71 12.61L141.71 12.61Q141.10 12.74 140.49 12.74L140.49 12.74L140.49 12.74Q139.19 12.74 138.22 12.37L138.22 12.37L138.22 12.37Q137.23 12.00 136.62 11.36L136.62 11.36L136.62 11.36Q136.03 10.76 135.71 9.94L135.71 9.94L135.71 9.94Q135.40 9.15 135.40 8.24ZM153.26 3.64L153.26 3.64L153.28 3.08L156.41 3.08L156.41 3.64L156.13 3.64L156.13 3.64Q155.68 3.64 155.57 3.66L155.57 3.66L155.57 3.66Q155.40 3.71 155.40 3.82L155.40 3.82L155.40 3.82Q155.40 3.89 155.65 4.31L155.65 4.31L157.66 7.46L160.10 3.99L160.10 3.99Q160.19 3.83 160.19 3.82L160.19 3.82L160.19 3.82Q160.19 3.64 159.28 3.64L159.28 3.64L159.06 3.64L159.04 3.08L161.59 3.08L161.59 3.64L161.52 3.64L161.52 3.64Q161.17 3.64 161.03 3.72L161.03 3.72L161.03 3.72Q160.87 3.80 160.58 4.22L160.58 4.22L157.86 8.17L157.86 11.22L157.86 11.22Q157.86 11.66 157.96 11.77L157.96 11.77L157.96 11.77Q158.06 11.87 158.68 11.87L158.68 11.87L159.31 11.87L159.29 12.41L155.36 12.41L155.37 11.87L155.93 11.87L155.93 11.87Q156.47 11.87 156.59 11.79L156.59 11.79L156.59 11.79Q156.72 11.70 156.72 11.25L156.72 11.25L156.72 8.06L154.42 4.49L154.42 4.49Q154.01 3.84 153.88 3.73L153.88 3.73L153.88 3.73Q153.77 3.64 153.26 3.64Z"></path></g></svg>