<svg data-v-423bf9ae="" xmlns="http://www.w3.org/2000/svg" viewBox="0 0 106.42442352603716 60" class="font"><!----><!----><!----><g data-v-423bf9ae="" id="6ff3dbe3-2e20-480c-83f2-a61d3bf688dc" fill="white" transform="matrix(2.906976830149121,0,0,2.906976830149121,12.296511416007945,-0.029069998533095998)"><path d="M1.40 12.87L1.40 12.87L1.40 12.87Q0.77 12.87 0.67 12.99L0.67 12.99L0.67 12.99Q0.20 13.61-1.29 16.46L-1.29 16.46L-1.29 16.46Q-2.79 19.32-3.19 20.48L-3.19 20.48L-3.19 20.48Q-3.25 20.65-3.46 20.65L-3.46 20.65L-3.46 20.65Q-3.67 20.65-3.95 20.34L-3.95 20.34L-3.95 20.34Q-4.23 20.03-4.23 19.68L-4.23 19.68L-4.23 19.68Q-4.23 19.19-2.83 16.71L-2.83 16.71L-2.83 16.71Q-1.43 14.22 0.50 10.98L0.50 10.98L0.50 10.98Q2.42 7.73 2.75 7.11L2.75 7.11L2.75 7.11Q3.08 6.48 3.09 6.45L3.09 6.45L3.09 6.45Q3.11 6.41 3.19 6.31L3.19 6.31L3.19 6.31Q3.28 6.20 3.39 6.13L3.39 6.13L3.39 6.13Q3.71 5.92 4.24 5.92L4.24 5.92L4.24 5.92Q4.54 5.92 4.54 6.10L4.54 6.10L4.54 6.10Q4.54 6.19 4.15 6.78L4.15 6.78L4.15 6.78Q3.77 7.36 3.77 7.50L3.77 7.50L3.77 7.50Q3.77 7.64 3.86 7.64L3.86 7.64L3.86 7.64Q3.96 7.64 4.23 7.48L4.23 7.48L4.23 7.48Q5.05 6.96 5.75 6.96L5.75 6.96L5.75 6.96Q6.03 6.96 6.26 7.18L6.26 7.18L6.26 7.18Q6.48 7.41 6.48 7.92L6.48 7.92L6.48 7.92Q6.48 9.06 5.81 10.20L5.81 10.20L5.81 10.20Q5.14 11.34 3.94 12.10L3.94 12.10L3.94 12.10Q2.74 12.87 1.40 12.87ZM5.01 8.65L5.01 8.65L5.01 8.65Q5.01 8.46 4.93 8.34L4.93 8.34L4.93 8.34Q4.84 8.22 4.72 8.22L4.72 8.22L4.72 8.22Q4.21 8.22 3.61 8.69L3.61 8.69L3.61 8.69Q3.01 9.17 2.57 9.77L2.57 9.77L2.57 9.77Q2.13 10.37 1.83 10.88L1.83 10.88L1.83 10.88Q1.53 11.38 1.53 11.52L1.53 11.52L1.53 11.52Q1.53 11.66 1.73 11.80L1.73 11.80L1.73 11.80Q1.93 11.94 2.21 11.94L2.21 11.94L2.21 11.94Q3.09 11.94 4.05 10.74L4.05 10.74L4.05 10.74Q5.01 9.53 5.01 8.65ZM10.74 10.57L10.74 10.57Q10.47 10.57 10.33 10.30L10.33 10.30L10.33 10.30Q10.19 10.02 10.19 9.77L10.19 9.77L10.19 9.77Q10.19 9.51 10.36 9.17L10.36 9.17L10.36 9.17Q10.36 8.99 10.22 8.99L10.22 8.99L10.22 8.99Q9.67 8.99 8.97 9.64L8.97 9.64L8.97 9.64Q8.27 10.29 7.80 10.98L7.80 10.98L7.80 10.98Q7.32 11.68 6.93 12.38L6.93 12.38L6.93 12.38Q6.69 12.80 5.95 12.80L5.95 12.80L5.95 12.80Q5.57 12.80 5.57 12.63L5.57 12.63L5.57 12.63Q5.57 12.25 6.95 9.81L6.95 9.81L6.95 9.81Q8.33 7.36 8.78 7.20L8.78 7.20L8.78 7.20Q9.09 7.04 9.47 7.04L9.47 7.04L9.47 7.04Q9.86 7.04 9.86 7.20L9.86 7.20L9.86 7.20Q9.86 7.36 9.53 7.83L9.53 7.83L9.53 7.83Q9.21 8.29 9.21 8.41L9.21 8.41L9.21 8.41Q9.21 8.54 9.31 8.54L9.31 8.54L9.31 8.54Q9.37 8.54 9.62 8.37L9.62 8.37L9.62 8.37Q10.23 7.91 11.13 7.42L11.13 7.42L11.26 7.25L11.26 7.25Q11.59 6.83 12.23 6.83L12.23 6.83L12.23 6.83Q12.87 6.83 12.87 7.08L12.87 7.08L12.87 7.08Q12.84 7.15 12.73 7.31L12.73 7.31L12.73 7.31Q11.62 8.82 10.86 10.47L10.86 10.47L10.86 10.47Q10.81 10.57 10.74 10.57L10.74 10.57ZM14.53 11.86L14.53 11.86L14.56 11.56L14.56 11.56Q14.56 11.45 14.48 11.45L14.48 11.45L14.48 11.45Q14.35 11.45 13.96 11.82L13.96 11.82L13.96 11.82Q13.58 12.18 13.00 12.55L13.00 12.55L13.00 12.55Q12.42 12.92 11.84 12.92L11.84 12.92L11.84 12.92Q11.26 12.92 11.26 12.07L11.26 12.07L11.26 12.07Q11.26 11.00 12.18 9.62L12.18 9.62L12.18 9.62Q12.66 8.92 13.28 8.32L13.28 8.32L13.28 8.32Q13.90 7.73 14.80 7.34L14.80 7.34L14.80 7.34Q15.69 6.96 16.67 6.96L16.67 6.96L16.67 6.96Q17.19 6.96 17.56 7.23L17.56 7.23L17.56 7.23Q17.92 7.50 17.92 7.90L17.92 7.90L17.92 7.90Q17.92 8.30 17.68 8.30L17.68 8.30L17.68 8.30Q17.56 8.30 17.35 8.15L17.35 8.15L17.35 8.15Q16.95 7.88 16.11 7.88L16.11 7.88L16.11 7.88Q15.01 7.88 14.02 8.88L14.02 8.88L14.02 8.88Q13.03 9.88 13.03 10.86L13.03 10.86L13.03 10.86Q13.03 10.99 13.11 11.10L13.11 11.10L13.11 11.10Q13.19 11.21 13.33 11.21L13.33 11.21L13.33 11.21Q13.75 11.21 14.41 10.63L14.41 10.63L14.41 10.63Q15.06 10.05 15.69 8.96L15.69 8.96L15.69 8.96Q15.74 8.83 16.00 8.72L16.00 8.72L16.00 8.72Q16.27 8.61 16.63 8.61L16.63 8.61L16.63 8.61Q17.15 8.65 17.15 8.83L17.15 8.83L17.15 8.83Q17.15 8.85 17.05 9.01L17.05 9.01L17.05 9.01Q16.94 9.17 16.67 9.59L16.67 9.59L16.67 9.59Q16.41 10.01 15.93 10.97L15.93 10.97L15.93 10.97Q15.44 11.93 15.36 12.49L15.36 12.49L15.36 12.49Q15.34 12.66 15.22 12.66L15.22 12.66L15.22 12.66Q14.53 12.66 14.53 11.86ZM22.85 7.17L22.85 7.17L22.85 7.17Q23.45 7.17 23.45 7.87L23.45 7.87L23.45 7.87Q23.45 8.57 22.96 9.63L22.96 9.63L22.96 9.63Q22.25 11.13 21.34 12.22L21.34 12.22L21.34 12.22Q20.90 12.74 20.24 12.74L20.24 12.74L20.24 12.74Q20.03 12.74 20.03 12.63L20.03 12.63L20.09 12.47L20.09 12.47Q20.75 11.51 21.26 10.48L21.26 10.48L21.26 10.48Q21.77 9.45 21.77 8.99L21.77 8.99L21.77 8.99Q21.77 8.90 21.72 8.85L21.72 8.85L21.72 8.85Q21.67 8.79 21.56 8.78L21.56 8.78L21.56 8.78Q20.99 8.78 20.01 9.72L20.01 9.72L20.01 9.72Q19.04 10.65 18.33 11.61L18.33 11.61L18.33 11.61Q17.63 12.56 17.42 12.93L17.42 12.93L17.42 12.93Q17.22 13.30 17.01 13.38L17.01 13.38L17.01 13.38Q16.80 13.45 16.32 13.45L16.32 13.45L16.32 13.45Q15.85 13.45 15.85 13.29L15.85 13.29L15.85 13.29Q15.85 13.23 15.98 13.02L15.98 13.02L15.98 13.02Q16.11 12.81 16.99 11.13L16.99 11.13L16.99 11.13Q17.86 9.45 18.84 7.71L18.84 7.71L18.84 7.71Q19.81 5.96 20.97 4.14L20.97 4.14L20.97 4.14Q22.12 2.32 23.28 1.17L23.28 1.17L23.28 1.17Q24.43 0.01 25.28 0.01L25.28 0.01L25.28 0.01Q25.94 0.01 25.94 0.78L25.94 0.78L25.94 0.78Q25.94 2.27 24.59 3.96L24.59 3.96L24.59 3.96Q23.24 5.66 22.12 6.17L22.12 6.17L22.12 6.17Q21.87 6.29 21.60 6.29L21.60 6.29L21.60 6.29Q21.32 6.29 21.32 6.16L21.32 6.16L21.41 6.02L21.41 6.02Q22.78 5.07 23.58 3.82L23.58 3.82L23.58 3.82Q24.39 2.58 24.39 2.07L24.39 2.07L24.39 2.07Q24.39 1.90 24.35 1.84L24.35 1.84L24.35 1.84Q24.30 1.78 24.15 1.78L24.15 1.78L24.15 1.78Q23.65 1.78 22.51 3.42L22.51 3.42L22.51 3.42Q21.36 5.05 20.45 6.79L20.45 6.79L20.45 6.79Q19.54 8.53 19.54 8.90L19.54 8.90L19.54 8.90Q19.54 9.06 19.65 9.06L19.65 9.06L19.65 9.06Q19.75 9.06 19.94 8.92L19.94 8.92L19.94 8.92Q20.15 8.72 20.48 8.43L20.48 8.43L20.48 8.43Q20.80 8.13 21.58 7.65L21.58 7.65L21.58 7.65Q22.36 7.17 22.85 7.17ZM23.35 13.06L23.35 13.06L23.35 13.06Q23.16 13.06 22.92 12.82L22.92 12.82L22.92 12.82Q22.68 12.57 22.68 12.22L22.68 12.22L22.68 12.22Q22.68 12.03 23.60 10.24L23.60 10.24L23.60 10.24Q24.51 8.46 24.54 7.83L24.54 7.83L24.54 7.83Q24.54 7.63 24.79 7.46L24.79 7.46L24.79 7.46Q25.24 7.20 26.12 7.20L26.12 7.20L26.12 7.20Q26.29 7.20 26.48 7.26L26.48 7.26L26.48 7.26Q26.67 7.32 26.67 7.43L26.67 7.43L26.67 7.43Q26.67 7.49 26.63 7.53L26.63 7.53L26.63 7.53Q26.10 8.20 25.07 9.95L25.07 9.95L25.07 9.95Q24.05 11.70 23.53 12.80L23.53 12.80L23.53 12.80Q23.46 13.06 23.35 13.06ZM26.42 6.41L26.42 6.41L26.42 6.41Q25.80 6.41 25.77 5.92L25.77 5.92L25.77 5.91L25.77 5.91Q25.77 5.49 26.19 5.22L26.19 5.22L26.19 5.22Q26.60 4.96 27.01 4.96L27.01 4.96L27.01 4.96Q27.62 4.96 27.65 5.45L27.65 5.45L27.65 5.45Q27.65 5.87 27.24 6.14L27.24 6.14L27.24 6.14Q26.84 6.41 26.42 6.41ZM30.25 10.57L30.25 10.57Q29.99 10.57 29.85 10.30L29.85 10.30L29.85 10.30Q29.71 10.02 29.71 9.77L29.71 9.77L29.71 9.77Q29.71 9.51 29.88 9.17L29.88 9.17L29.88 9.17Q29.88 8.99 29.74 8.99L29.74 8.99L29.74 8.99Q29.19 8.99 28.49 9.64L28.49 9.64L28.49 9.64Q27.79 10.29 27.31 10.98L27.31 10.98L27.31 10.98Q26.84 11.68 26.45 12.38L26.45 12.38L26.45 12.38Q26.21 12.80 25.47 12.80L25.47 12.80L25.47 12.80Q25.09 12.80 25.09 12.63L25.09 12.63L25.09 12.63Q25.09 12.25 26.47 9.81L26.47 9.81L26.47 9.81Q27.85 7.36 28.29 7.20L28.29 7.20L28.29 7.20Q28.60 7.04 28.99 7.04L28.99 7.04L28.99 7.04Q29.37 7.04 29.37 7.20L29.37 7.20L29.37 7.20Q29.37 7.36 29.05 7.83L29.05 7.83L29.05 7.83Q28.73 8.29 28.73 8.41L28.73 8.41L28.73 8.41Q28.73 8.54 28.83 8.54L28.83 8.54L28.83 8.54Q28.88 8.54 29.13 8.37L29.13 8.37L29.13 8.37Q29.75 7.91 30.65 7.42L30.65 7.42L30.77 7.25L30.77 7.25Q31.11 6.83 31.75 6.83L31.75 6.83L31.75 6.83Q32.38 6.83 32.38 7.08L32.38 7.08L32.38 7.08Q32.35 7.15 32.24 7.31L32.24 7.31L32.24 7.31Q31.14 8.82 30.38 10.47L30.38 10.47L30.38 10.47Q30.32 10.57 30.25 10.57L30.25 10.57Z"></path></g><!----><!----></svg>